<svg height="512pt" viewBox="-35 0 512 512" width="512pt" xmlns="http://www.w3.org/2000/svg" fill="#673ab7">
  <path
    d="m319 60c0-11.046875 8.953125-20 20-20h20v-20c0-11.046875 8.953125-20 20-20s20 8.953125 20 20v20h20c11.046875 0 20 8.953125 20 20s-8.953125 20-20 20h-20v20c0 11.046875-8.953125 20-20 20s-20-8.953125-20-20v-20h-20c-11.046875 0-20-8.953125-20-20zm72.96875 423.214844c3.027344 6.199218 2.652344 13.523437-1.003906 19.375-3.652344 5.851562-10.066406 9.410156-16.964844 9.410156h-308c-6.898438 0-13.3125-3.558594-16.964844-9.410156-3.65625-5.851563-4.03125-13.175782-1.003906-19.375l41.636719-85.160156c-56.015625-41.191407-89.667969-106.578126-89.667969-177.554688 0-58.898438 22.9375-114.269531 64.582031-155.917969 41.648438-41.644531 97.019531-64.582031 155.917969-64.582031 20.347656 0 40.511719 2.773438 59.925781 8.246094 10.632813 2.996094 16.820313 14.042968 13.824219 24.675781s-14.046875 16.820313-24.675781 13.824219c-15.882813-4.476563-32.394531-6.746094-49.074219-6.746094-99.527344 0-180.5 80.972656-180.5 180.5 0 67.566406 37.261719 128.953125 97.238281 160.195312.75.394532 1.453125.835938 2.132813 1.304688h190.628906c7.640625 0 14.613281 4.351562 17.96875 11.214844zm-50.007812-11.214844-24.445313-50h-195.03125l-24.445313 50zm-100.960938-374c0-11.046875-8.953125-20-20-20-36.105469 0-70.515625 13.5625-96.890625 38.191406-26.242187 24.5-42.125 57.652344-44.730469 93.355469-.800781 11.015625 7.476563 20.597656 18.492188 21.398437.496094.035157.988281.054688 1.476562.054688 10.386719 0 19.160156-8.023438 19.925782-18.546875 3.863281-52.964844 48.546874-94.453125 101.726562-94.453125 11.046875 0 20-8.953125 20-20zm-106.867188 175.492188c-5.804687-9.398438-18.125-12.3125-27.523437-6.511719-9.398437 5.804687-12.316406 18.125-6.511719 27.527343 11.335938 18.363282 26.976563 34.152344 45.234375 45.667969 3.3125 2.089844 7.003907 3.085938 10.648438 3.085938 6.636719 0 13.132812-3.300781 16.933593-9.332031 5.894532-9.34375 3.097657-21.691407-6.246093-27.585938-13.128907-8.28125-24.378907-19.640625-32.535157-32.851562zm298.621094-112.917969c-2.996094-10.628907-14.039062-16.820313-24.675781-13.824219-10.628906 2.996094-16.820313 14.042969-13.824219 24.675781 4.476563 15.882813 6.746094 32.394531 6.746094 49.074219 0 37.105469-11.167969 72.746094-32.296875 103.066406-6.316406 9.0625-4.089844 21.527344 4.972656 27.84375 3.484375 2.425782 7.472657 3.59375 11.417969 3.59375 6.320312 0 12.539062-2.992187 16.425781-8.570312 25.828125-37.0625 39.480469-80.609375 39.480469-125.933594 0-20.347656-2.773438-40.511719-8.246094-59.925781zm0 0"/>
</svg>
